var bote_obj = `# Blender v2.79 (sub 0) OBJ File: 'todo_en_uno.blend'
# www.blender.org
v 1.763155 0.074883 -7.781511
v 1.642008 -0.103086 -7.532554
v 1.678928 0.074883 -7.391234
v 1.266619 0.171639 -10.263476
v 1.287690 0.312642 -10.346206
v 1.287529 0.171639 -10.353729
v 1.284890 0.338890 -10.352256
v 1.290395 0.312642 -10.307865
v 1.865315 0.171639 -7.638565
v 1.759200 0.312642 -7.164096
v 1.789837 0.171639 -7.156501
v 1.352130 0.019031 -7.233022
v 1.780982 -0.122317 -7.382195
v 1.797480 0.019031 -7.233023
v 1.376225 0.312642 -10.256379
v 1.557372 0.171639 -9.732354
v 1.376485 0.171639 -10.263475
v 1.556257 0.312641 -9.727769
v 1.710313 0.171639 -9.250290
v 1.708475 0.312642 -9.247984
v 1.806249 0.171639 -8.444427
v 1.862744 0.312642 -7.643880
v 0.883904 0.312642 -7.164097
v 0.777788 0.171639 -7.638566
v 0.853267 0.171639 -7.156502
v 0.780359 0.312642 -7.643882
v 0.836855 0.171639 -8.444429
v 0.934629 0.312642 -9.247986
v 0.932791 0.171639 -9.250292
v 1.086847 0.312641 -9.727771
v 1.085732 0.171639 -9.732355
v 0.931055 0.074883 -8.478768
v 1.055613 -0.103086 -9.137322
v 1.024974 0.074883 -9.180890
v 1.618130 0.074883 -9.180889
v 1.467526 -0.103086 -9.515443
v 1.587490 -0.103086 -9.137321
v 1.683972 0.099194 -7.371929
v 0.959133 0.099194 -7.371929
v 1.295422 0.312642 -7.202436
v 0.925570 -0.103086 -7.882513
v 0.971397 -0.103086 -8.507736
v 1.350794 -0.122317 -10.130150
v 1.274338 -0.122317 -10.052580
v 1.292310 -0.122317 -10.130150
v 1.292035 -0.122317 -7.382196
v 1.788906 -0.122317 -7.796520
v 1.351070 -0.122317 -7.382195
v 0.854198 -0.122317 -7.796520
v 1.738139 -0.122317 -8.489143
v 1.266878 0.312642 -10.256380
v 1.298345 0.312642 -10.222332
v 0.914852 0.312642 -7.202436
v 1.293434 0.312642 -7.164096
v 1.353954 0.019031 -10.277924
v 1.358388 0.171963 -10.360400
v 1.355575 0.171639 -10.353728
v 1.728251 0.312642 -7.202436
v 1.824104 0.312642 -7.646578
v 0.819000 0.312642 -7.646579
v 0.839147 0.312642 -8.445933
v 0.984041 0.312642 -9.239095
v 0.877160 0.312642 -8.440068
v 1.344758 0.312642 -10.222332
v 1.659062 0.312642 -9.239093
v 1.506812 0.312641 -9.718978
v 1.803957 0.312642 -8.445932
v 1.765944 0.312642 -8.440066
v 1.712049 0.074883 -8.478766
v 1.671707 -0.103086 -8.507735
v 1.158760 0.074883 -9.602575
v 1.303266 -0.103086 -9.912056
v 1.301160 0.074883 -10.044883
v 1.175577 -0.103086 -9.515444
v 0.879948 0.074883 -7.781512
v 1.001096 -0.103086 -7.532555
v 1.717534 -0.103086 -7.882512
v 1.341944 0.074883 -10.044882
v 1.324222 -0.103086 -9.979452
v 1.339837 -0.103086 -9.912056
v 0.951313 0.019031 -9.227058
v 1.118870 -0.122317 -9.596091
v 0.987419 -0.122317 -9.181767
v 1.096968 0.019031 -9.686155
v 0.859947 0.019031 -8.459589
v 0.904965 -0.122317 -8.489143
v 0.803695 0.019031 -7.692120
v 0.862122 -0.122317 -7.382195
v 0.845624 0.019031 -7.233023
v 1.783157 0.019031 -8.459588
v 1.839409 0.019031 -7.692120
v 1.655684 -0.122317 -9.181767
v 1.691791 0.019031 -9.227057
v 1.524235 -0.122317 -9.596091
v 1.546136 0.019031 -9.686154
v 1.368766 -0.122317 -10.052580
v 1.373868 0.019031 -10.191972
v 1.351639 0.171639 -7.156501
v 1.349670 0.312642 -7.164096
v 1.356633 0.006739 -10.278328
v 1.269236 0.019031 -10.191973
v 1.289150 0.019031 -10.277925
v 1.484344 0.074883 -9.602574
v 1.318881 -0.103086 -9.979452
v 1.306686 0.074883 -10.120043
v 1.352709 0.312642 -10.307865
v 1.355414 0.312642 -10.346205
v 1.136292 0.312641 -9.718980
v 1.346677 0.338890 -10.218140
v 1.296427 0.338890 -10.218140
v 1.323043 0.312642 -10.222332
v 1.284716 0.171963 -10.360401
v 1.289892 -0.122136 -10.138283
v 1.286471 0.006739 -10.278330
v 1.358213 0.338890 -10.352254
v 0.964176 0.074883 -7.391234
v 1.290974 0.019031 -7.233023
v 1.291466 0.171639 -7.156502
v 1.289790 -0.122310 -7.369121
v 1.349669 0.325865 -7.200519
v 1.351808 0.325865 -7.143235
v 1.336417 0.074883 -10.120043
v 1.289178 0.174141 -7.135063
v 1.291296 0.325865 -7.143235
v 1.353314 -0.122310 -7.369121
v 1.353211 -0.122136 -10.138283
v 1.354454 0.009931 -7.217402
v 1.353926 0.174141 -7.135063
v 1.288650 0.009931 -7.217402
v 1.347682 0.312642 -7.202435
v 1.293436 0.325865 -7.200519
v 1.622315 0.099194 -9.186841
v 1.480314 0.098728 -9.587179
v 1.610788 0.098728 -9.175933
v 1.301941 0.075349 -10.001089
v 1.164999 0.075349 -9.575734
v 1.020789 0.099194 -9.186842
v 0.940722 0.098728 -8.491193
v 1.032316 0.098728 -9.175934
v 1.036341 0.075349 -9.170211
v 1.338083 0.099194 -10.139248
v 1.305654 0.098728 -10.091838
v 1.305021 0.099194 -10.139248
v 1.769387 0.099194 -7.767714
v 1.670081 0.098728 -7.430581
v 0.977873 0.075349 -7.449146
v 1.300872 0.099194 -10.063027
v 1.746230 0.075349 -7.824465
v 1.697083 0.075349 -8.494997
v 1.486642 0.099194 -9.614476
v 1.341439 0.098728 -10.018538
v 1.342232 0.099194 -10.063026
v 1.337449 0.098728 -10.091838
v 1.335848 0.075349 -10.073368
v 1.341162 0.075349 -10.001088
v 1.717560 0.099194 -8.474810
v 1.752223 0.098728 -7.811196
v 0.973023 0.098728 -7.430581
v 0.873717 0.099194 -7.767715
v 0.925544 0.099194 -8.474811
v 1.156462 0.099194 -9.614478
v 1.307256 0.075349 -10.073368
v 1.301665 0.098728 -10.018538
v 1.478105 0.075349 -9.575732
v 1.702382 0.098728 -8.491192
v 0.890881 0.098728 -7.811197
v 0.896874 0.075349 -7.824466
v 1.162789 0.098728 -9.587181
v 1.606763 0.075349 -9.170210
v 0.946021 0.075349 -8.494998
v 1.665231 0.075349 -7.449146
v 1.504298 0.281906 -9.723532
v 1.323022 0.281906 -10.220055
v 1.138806 0.281906 -9.723534
v 1.320081 0.281906 -10.220055
v 1.344443 0.281906 -10.220055
v 1.320060 0.312642 -10.222332
v 1.298660 0.281906 -10.220055
vn -0.9167 0.3473 -0.1978
vn -0.9741 0.0132 -0.2257
vn -0.9935 -0.0898 0.0701
vn 0.9643 0.2177 0.1510
vn 0.0000 -0.7259 0.6878
vn 0.9465 0.0180 -0.3223
vn 0.9530 0.0174 -0.3024
vn 0.9929 0.0149 -0.1182
vn 0.9972 0.0154 -0.0731
vn -0.9643 0.2177 0.1510
vn -0.9972 0.0154 -0.0731
vn -0.9929 0.0149 -0.1182
vn -0.9530 0.0174 -0.3024
vn 0.9713 0.1990 0.1299
vn -0.9273 0.2317 0.2942
vn -0.9274 0.2319 0.2936
vn 0.0000 0.6219 -0.7831
vn 0.9752 0.2094 0.0715
vn 0.0000 -1.0000 0.0000
vn -0.0000 -1.0000 0.0002
vn 0.0000 1.0000 -0.0000
vn 0.9025 0.1839 0.3895
vn 0.9025 0.1838 0.3894
vn -0.9713 0.1990 0.1299
vn 0.9254 0.2338 0.2982
vn 0.9256 0.2334 0.2980
vn 0.9273 0.2317 0.2942
vn 0.9273 0.2319 0.2937
vn 0.9167 0.3473 -0.1978
vn -0.9752 0.2094 0.0715
vn -0.9588 0.1771 0.2221
vn -0.9023 -0.3222 -0.2863
vn -0.9410 -0.1597 -0.2985
vn -0.9533 -0.2799 -0.1135
vn -0.9836 -0.1372 -0.1171
vn -0.9546 -0.2894 -0.0700
vn -0.9872 -0.1422 -0.0724
vn -0.9373 -0.3481 0.0179
vn -0.9760 -0.1986 0.0892
vn -0.9763 -0.1970 0.0892
vn -0.9746 -0.2056 0.0891
vn 0.9546 -0.2894 -0.0700
vn 0.9872 -0.1422 -0.0724
vn 0.9533 -0.2799 -0.1135
vn 0.9836 -0.1372 -0.1171
vn 0.9023 -0.3222 -0.2863
vn 0.9410 -0.1596 -0.2985
vn 0.9410 -0.1597 -0.2985
vn 0.8929 -0.3321 -0.3041
vn 0.9336 -0.1650 -0.3180
vn 0.0000 0.0538 0.9986
vn 0.0000 -0.4482 0.8939
vn 0.9373 -0.3481 0.0179
vn 0.9763 -0.1970 0.0892
vn 0.9760 -0.1986 0.0892
vn 0.9746 -0.2056 0.0891
vn 0.9561 0.2013 0.2130
vn -0.9434 -0.2496 -0.2186
vn -0.9670 -0.1216 -0.2240
vn -0.9336 -0.1650 -0.3180
vn -0.8929 -0.3321 -0.3041
vn 0.9670 -0.1216 -0.2240
vn 0.9434 -0.2496 -0.2186
vn -0.9271 0.2320 0.2942
vn -0.9256 0.2334 0.2980
vn 0.9895 0.1253 0.0728
vn 0.9741 0.0132 -0.2257
vn -0.9465 0.0180 -0.3223
vn 0.0000 -0.1577 0.9875
vn -0.9216 -0.0196 0.3876
vn 0.0000 0.0487 -0.9988
vn 0.0000 -0.7358 -0.6771
vn 0.0000 -0.7358 -0.6772
vn 0.0000 -0.4449 -0.8956
vn -0.9187 0.2792 0.2793
vn 0.9329 -0.0166 0.3598
vn -0.9025 0.1838 0.3894
vn -0.9025 0.1839 0.3895
vn 0.0000 -1.0000 0.0005
vn 0.9941 -0.1021 -0.0371
vn 0.0000 0.6199 0.7847
vn -0.9942 0.0081 -0.1070
vn 0.9714 0.1688 -0.1668
vn 0.0000 -0.9998 -0.0222
vn 0.0000 -0.7538 0.6571
vn 0.0000 0.1435 -0.9897
vn 0.9942 0.0081 -0.1070
vn -0.9918 0.0597 -0.1128
vn -0.9918 0.0598 -0.1128
vn -0.9887 -0.1411 -0.0513
vn -0.9911 0.0963 -0.0914
vn 0.9918 0.0598 -0.1128
vn 0.9918 0.0597 -0.1128
vn -0.0353 0.9994 0.0056
vn -0.0310 0.9995 0.0099
vn -0.0318 0.9995 0.0093
vn 0.0313 -0.9995 0.0101
vn 0.0315 -0.9995 0.0100
vn 0.0352 0.9994 0.0057
vn 0.0342 0.9994 0.0031
vn 0.0318 0.9995 0.0093
vn 0.0357 -0.9993 0.0057
vn 0.0323 -0.9994 0.0094
vn 0.0000 -1.0000 -0.0098
vn -0.0175 0.9998 -0.0038
vn 0.0178 -0.9998 -0.0038
vn -0.1434 -0.9896 -0.0078
vn -0.0355 -0.9994 0.0042
vn -0.0338 -0.9994 0.0025
vn -0.0345 -0.9994 0.0032
vn -0.0308 0.9995 0.0099
vn 0.1434 -0.9896 -0.0078
vn -0.1156 -0.9933 0.0085
vn -0.0313 -0.9995 0.0101
vn -0.0351 0.9994 0.0040
vn -0.0333 0.9994 0.0024
vn -0.9274 0.2319 0.2937
vn 0.9957 0.0049 0.0926
vn -0.9957 0.0049 0.0926
vn 0.0000 -0.6199 -0.7847
vn -0.9924 -0.1107 -0.0540
vn -0.9271 0.2319 0.2946
vn -0.9274 0.2318 0.2936
vn 0.9924 -0.1106 -0.0540
vn 0.9167 0.3472 -0.1978
vn 0.9273 0.2316 0.2942
vn 0.9274 0.2318 0.2937
vn 0.9256 0.2333 0.2980
vn 0.0000 1.0000 -0.0079
vn -0.9273 0.2316 0.2942
vn -0.0357 -0.9993 0.0057
vn -0.0323 -0.9994 0.0094
vn 0.0000 -1.0000 0.0100
vn 0.0355 -0.9994 0.0042
vn 0.0338 -0.9994 0.0025
vn 0.0351 0.9994 0.0039
vn 0.0333 0.9994 0.0024
vn 0.0000 -1.0000 -0.0080
vn -0.0342 0.9994 0.0031
vn -0.0315 -0.9995 0.0100
vn 0.0308 0.9995 0.0099
vn 0.0346 -0.9994 0.0033
vn 0.0310 0.9995 0.0099
vn -0.0178 -0.9998 -0.0038
vn 0.0175 0.9998 -0.0038
vn 0.1156 -0.9933 0.0085
vn -0.0000 -0.1466 0.9892
vn -0.9514 -0.0324 -0.3063
vn 0.0000 -0.0739 -0.9973
vn 0.9514 -0.0325 -0.3063
vn 0.9919 -0.0872 0.0922
vn -0.0000 0.5981 0.8014
vn 0.0000 -0.5981 -0.8014
vn 0.0000 -0.9999 -0.0105
vn -0.9919 -0.0872 0.0922
vn -0.9943 -0.0639 0.0855
vn 0.9772 0.0258 0.2109
vn -0.9772 0.0258 0.2109
vn -0.9895 0.1253 0.0728
vn -0.9742 -0.2076 0.0890
vn -0.9876 -0.0281 0.1546
vn 0.9742 -0.2076 0.0890
vn 0.9876 -0.0281 0.1546
vn 0.9187 0.2791 0.2793
vn 0.9588 0.1772 0.2222
vn -0.9329 -0.0166 0.3598
vn -0.9561 0.2013 0.2130
vn 0.9216 -0.0196 0.3876
vn 0.9887 -0.1411 -0.0513
vn 0.9911 0.0963 -0.0914
vn 0.0000 0.1435 -0.9896
vn -0.9941 -0.1021 -0.0371
vn -0.9714 0.1688 -0.1668
vn 0.9972 -0.0523 -0.0543
vn -0.9972 -0.0523 -0.0543
vn -0.9951 -0.0664 -0.0732
vn 0.9951 -0.0664 -0.0732
vn 0.9514 -0.0324 -0.3063
vn 0.9935 -0.0898 0.0701
vn 0.9943 -0.0639 0.0855
vn -0.0001 0.5981 0.8014
s 1
f 1//1 2//1 3//1
f 4//2 5//2 6//2
f 7//3 5//3 8//3
f 9//4 10//4 11//4
f 12//5 13//5 14//5
f 15//6 16//6 17//6
f 18//7 19//7 16//7
f 20//8 21//8 19//8
f 21//9 22//9 9//9
f 23//10 24//10 25//10
f 26//11 27//11 24//11
f 27//12 28//12 29//12
f 29//13 30//13 31//13
f 32//14 33//14 34//14
f 35//15 36//16 37//15
f 38//17 39//17 40//17
f 32//18 41//18 42//18
f 43//19 44//19 45//19
f 46//20 47//19 48//20
f 49//19 50//19 47//19
f 8//21 51//21 52//21
f 53//21 54//21 40//21
f 55//22 56//23 57//23
f 58//21 22//21 59//21
f 53//21 26//21 23//21
f 60//21 61//21 26//21
f 62//21 61//21 63//21
f 62//21 30//21 28//21
f 64//21 18//21 15//21
f 65//21 18//21 66//21
f 65//21 67//21 20//21
f 59//21 67//21 68//21
f 69//24 37//24 70//24
f 71//25 72//26 73//26
f 34//27 74//28 71//25
f 75//29 76//29 41//29
f 69//30 77//30 1//30
f 78//31 79//31 80//31
f 81//32 82//32 83//32
f 29//33 84//33 81//33
f 85//34 83//34 86//34
f 27//35 81//35 85//35
f 49//36 85//36 86//36
f 87//37 27//37 85//37
f 88//38 87//38 49//38
f 89//39 24//40 87//41
f 90//42 47//42 50//42
f 21//43 91//43 90//43
f 92//44 90//44 50//44
f 93//45 21//45 90//45
f 94//46 93//46 92//46
f 95//47 19//48 93//48
f 96//49 95//49 94//49
f 97//50 16//50 95//50
f 98//51 10//51 99//51
f 12//52 11//52 98//52
f 91//53 13//53 47//53
f 9//54 14//55 91//56
f 43//57 100//57 55//57
f 86//19 92//19 50//19
f 101//58 45//58 44//58
f 4//59 102//59 101//59
f 31//60 101//60 84//60
f 84//61 44//61 82//61
f 55//62 17//62 97//62
f 43//63 97//63 96//63
f 103//64 80//65 36//16
f 73//66 104//66 105//66
f 106//21 15//21 107//21
f 52//21 30//21 108//21
f 107//67 17//67 57//67
f 31//68 51//68 4//68
f 109//69 110//69 111//69
f 5//70 112//70 6//70
f 83//19 94//19 92//19
f 7//71 56//71 112//71
f 82//19 96//19 94//19
f 100//72 113//73 114//72
f 56//74 114//74 112//74
f 45//75 114//75 113//75
f 110//21 115//21 7//21
f 107//76 56//76 115//76
f 102//77 112//78 114//77
f 116//17 2//17 76//17
f 25//52 117//52 118//52
f 48//20 119//79 46//20
f 23//51 118//51 54//51
f 99//80 120//80 121//80
f 33//21 36//21 74//21
f 42//21 37//21 33//21
f 41//21 70//21 42//21
f 76//21 77//21 41//21
f 72//21 79//21 104//21
f 104//81 122//81 105//81
f 58//21 99//21 10//21
f 54//82 123//82 124//82
f 88//5 117//5 89//5
f 12//83 125//83 48//83
f 45//84 126//84 43//84
f 123//52 127//52 128//52
f 123//51 121//51 124//51
f 120//21 124//21 121//21
f 129//85 125//85 127//85
f 130//86 131//86 120//86
f 99//87 128//87 98//87
f 118//88 129//89 123//88
f 54//90 131//90 40//90
f 117//91 119//91 129//91
f 98//92 127//93 12//93
f 132//94 133//95 134//96
f 71//97 135//97 136//98
f 137//99 138//100 139//101
f 34//102 136//98 140//103
f 141//104 142//104 143//104
f 144//105 145//105 38//105
f 75//106 146//106 116//106
f 142//107 147//107 143//107
f 69//108 148//109 149//110
f 150//111 151//111 133//95
f 152//112 153//112 141//112
f 78//113 154//113 122//113
f 103//114 155//114 78//114
f 156//115 157//116 144//116
f 59//1 38//1 58//1
f 63//14 137//14 62//14
f 65//15 150//117 132//15
f 145//17 146//17 158//17
f 63//18 159//18 160//18
f 68//24 132//24 156//24
f 108//25 147//26 52//26
f 62//27 161//28 108//25
f 60//29 39//29 159//29
f 68//30 144//30 59//30
f 64//118 141//118 106//118
f 66//64 152//65 150//117
f 143//119 52//119 8//119
f 106//120 143//120 8//120
f 153//120 162//120 142//120
f 162//121 163//121 142//121
f 133//122 155//65 164//123
f 151//124 154//124 153//124
f 165//30 148//30 157//30
f 166//29 146//125 167//29
f 139//126 136//127 168//25
f 168//25 135//128 163//128
f 165//24 169//24 149//24
f 138//18 167//18 170//18
f 145//129 39//129 38//129
f 134//15 164//123 169//130
f 138//14 140//14 139//14
f 157//1 171//1 145//1
f 35//131 149//110 169//132
f 122//133 162//133 105//133
f 32//134 167//135 75//135
f 160//136 166//137 138//100
f 74//21 80//21 72//21
f 171//138 116//138 146//138
f 132//94 165//139 156//115
f 35//131 164//140 103//114
f 161//141 163//141 147//141
f 34//102 170//142 32//134
f 137//99 168//143 161//141
f 1//144 171//144 148//144
f 159//145 158//145 166//145
f 73//146 162//146 135//146
f 108//147 172//147 66//147
f 173//19 174//19 175//19
f 52//148 174//148 108//148
f 176//149 111//149 64//149
f 172//150 64//150 66//150
f 177//149 178//149 52//149
f 111//149 175//149 177//149
f 66//21 64//21 111//21
f 109//151 64//151 106//151
f 78//152 72//152 80//152
f 135//21 154//21 162//21
f 135//153 151//153 155//153
f 163//154 152//154 151//154
f 147//153 64//153 152//153
f 1//1 77//1 2//1
f 4//2 51//2 5//2
f 8//155 52//155 110//155
f 110//156 7//156 8//156
f 9//157 22//157 10//157
f 12//5 48//5 13//5
f 15//6 18//6 16//6
f 18//7 20//7 19//7
f 20//8 67//8 21//8
f 21//9 67//9 22//9
f 23//158 26//158 24//158
f 26//11 61//11 27//11
f 27//12 61//12 28//12
f 29//13 28//13 30//13
f 32//14 42//14 33//14
f 35//15 103//64 36//16
f 53//17 40//17 39//17
f 40//17 130//17 38//17
f 130//17 58//17 38//17
f 32//18 75//18 41//18
f 43//19 96//19 44//19
f 46//20 88//19 49//19
f 49//19 47//19 46//20
f 47//19 13//19 48//20
f 49//19 86//19 50//19
f 8//21 5//21 51//21
f 53//21 23//21 54//21
f 55//22 100//22 56//23
f 58//21 10//21 22//21
f 53//21 60//21 26//21
f 60//21 63//21 61//21
f 62//21 28//21 61//21
f 62//21 108//21 30//21
f 64//21 66//21 18//21
f 65//21 20//21 18//21
f 65//21 68//21 67//21
f 59//21 22//21 67//21
f 69//24 35//24 37//24
f 71//25 74//28 72//26
f 34//27 33//27 74//28
f 75//29 116//29 76//29
f 69//30 70//30 77//30
f 78//159 122//159 79//159
f 81//32 84//32 82//32
f 29//33 31//33 84//33
f 85//34 81//34 83//34
f 27//35 29//35 81//35
f 49//36 87//36 85//36
f 87//37 24//37 27//37
f 88//160 89//39 87//41
f 89//161 25//161 24//161
f 90//42 91//42 47//42
f 21//43 9//43 91//43
f 92//44 93//44 90//44
f 93//45 19//45 21//45
f 94//46 95//46 93//46
f 95//47 16//47 19//48
f 96//49 97//49 95//49
f 97//50 17//50 16//50
f 98//51 11//51 10//51
f 12//52 14//52 11//52
f 91//56 14//55 13//162
f 9//163 11//163 14//163
f 43//164 126//164 100//164
f 86//19 83//19 92//19
f 101//58 102//58 45//58
f 4//59 6//59 102//59
f 31//60 4//60 101//60
f 84//61 101//61 44//61
f 55//62 57//62 17//62
f 43//63 55//63 97//63
f 103//65 78//65 80//65
f 73//165 72//165 104//165
f 106//21 64//21 15//21
f 52//21 51//21 30//21
f 107//67 15//67 17//67
f 31//68 30//68 51//68
f 52//69 177//69 110//69
f 177//69 111//69 110//69
f 111//69 64//69 109//69
f 5//166 7//166 112//166
f 83//19 82//19 94//19
f 7//71 115//71 56//71
f 82//19 44//19 96//19
f 100//72 126//73 113//73
f 56//74 100//74 114//74
f 45//167 102//167 114//167
f 110//21 109//21 115//21
f 107//168 57//168 56//168
f 102//77 6//78 112//78
f 116//17 3//17 2//17
f 25//52 89//52 117//52
f 48//20 125//79 119//79
f 23//51 25//51 118//51
f 99//169 130//169 120//169
f 33//21 37//21 36//21
f 42//21 70//21 37//21
f 41//21 77//21 70//21
f 76//21 2//21 77//21
f 72//21 80//21 79//21
f 104//81 79//81 122//81
f 58//21 130//21 99//21
f 54//82 118//82 123//82
f 88//5 46//5 117//5
f 12//170 127//170 125//170
f 45//84 113//84 126//84
f 123//52 129//52 127//52
f 123//51 128//51 121//51
f 120//21 131//21 124//21
f 129//85 119//85 125//85
f 130//86 40//171 131//86
f 99//87 121//87 128//87
f 118//88 117//89 129//89
f 54//172 124//172 131//172
f 117//173 46//173 119//173
f 98//92 128//92 127//93
f 132//94 150//111 133//95
f 71//97 73//97 135//97
f 137//99 160//136 138//100
f 34//102 71//97 136//98
f 141//104 153//104 142//104
f 144//105 157//105 145//105
f 75//106 167//106 146//106
f 142//107 163//107 147//107
f 69//108 1//109 148//109
f 150//111 152//111 151//111
f 152//112 151//112 153//112
f 78//113 155//113 154//113
f 103//114 164//140 155//114
f 156//115 165//139 157//116
f 59//1 144//1 38//1
f 63//14 160//14 137//14
f 65//15 66//64 150//117
f 145//17 171//17 146//17
f 63//18 60//18 159//18
f 68//24 65//24 132//24
f 108//25 161//28 147//26
f 62//27 137//27 161//28
f 60//29 53//29 39//29
f 68//30 156//30 144//30
f 64//174 152//174 141//174
f 66//65 64//65 152//65
f 143//175 147//175 52//175
f 106//120 141//120 143//120
f 153//120 154//120 162//120
f 162//176 135//176 163//176
f 133//65 151//65 155//65
f 151//177 155//177 154//177
f 165//30 149//30 148//30
f 166//29 158//125 146//125
f 139//126 140//126 136//127
f 168//25 136//127 135//128
f 165//24 134//24 169//24
f 138//18 166//18 167//18
f 145//129 158//129 39//129
f 134//15 133//122 164//123
f 138//14 170//14 140//14
f 157//1 148//1 171//1
f 35//131 69//108 149//110
f 122//133 154//133 162//133
f 32//134 170//142 167//135
f 160//136 159//137 166//137
f 74//21 36//21 80//21
f 171//138 3//138 116//138
f 132//94 134//96 165//139
f 35//131 169//132 164//140
f 161//141 168//143 163//141
f 34//102 140//103 170//142
f 137//99 139//101 168//143
f 1//144 3//144 171//144
f 159//145 39//145 158//145
f 73//146 105//146 162//146
f 108//147 174//147 172//147
f 173//19 176//19 172//19
f 172//19 174//19 173//19
f 174//19 178//19 175//19
f 52//148 178//148 174//148
f 176//149 173//149 111//149
f 172//150 176//178 64//150
f 177//149 175//149 178//149
f 111//149 173//149 175//149
f 111//21 177//21 108//21
f 177//21 52//21 108//21
f 108//21 66//21 111//21
f 106//179 107//179 115//179
f 115//180 109//180 106//180
f 78//152 73//181 72//152
f 135//21 155//21 154//21
f 135//153 163//153 151//153
f 163//154 147//154 152//154
f 147//153 52//153 64//153
`