var hinges_obj = `# Blender v2.79 (sub 0) OBJ File: 'todo_en_uno.blend'
# www.blender.org
v 0.952970 0.347701 -9.146057
v 0.951389 0.312694 -9.130737
v 0.952970 0.312694 -9.146057
v 0.941886 0.351446 -9.132348
v 0.951389 0.351446 -9.130737
v 0.946630 0.347701 -9.178308
v 0.948211 0.312694 -9.193628
v 0.946630 0.312694 -9.178308
v 0.957713 0.351446 -9.192017
v 0.948211 0.351446 -9.193628
v 0.943467 0.312694 -9.147668
v 0.943467 0.347701 -9.147668
v 0.945048 0.337022 -9.162988
v 0.956132 0.347701 -9.176697
v 0.954551 0.337022 -9.161377
v 0.956132 0.312694 -9.176697
v 0.957713 0.312694 -9.192017
v 0.954551 0.312694 -9.161377
v 0.945048 0.312694 -9.162988
v 0.941886 0.312694 -9.132348
v 1.703107 0.347701 -9.147741
v 1.704537 0.312694 -9.132366
v 1.703107 0.312694 -9.147741
v 1.692318 0.351446 -9.130499
v 1.704537 0.351446 -9.132366
v 1.688029 0.347701 -9.176624
v 1.686598 0.312694 -9.191999
v 1.688029 0.312694 -9.176624
v 1.698818 0.351446 -9.193866
v 1.686598 0.351446 -9.191999
v 1.690888 0.312694 -9.145874
v 1.690888 0.347701 -9.145874
v 1.689459 0.337022 -9.161249
v 1.700248 0.347701 -9.178491
v 1.701678 0.337022 -9.163116
v 1.700248 0.312694 -9.178491
v 1.698818 0.312694 -9.193866
v 1.701678 0.312694 -9.163116
v 1.689459 0.312694 -9.161249
v 1.692318 0.312694 -9.130499
vn 0.9947 0.0000 0.1027
vn -0.1670 0.0000 0.9860
vn -0.1672 0.0000 0.9859
vn -0.1669 0.0000 0.9860
vn -0.9947 0.0000 -0.1027
vn -0.9947 0.0000 -0.1026
vn 0.1672 0.0000 -0.9859
vn 0.0000 -1.0000 0.0000
vn 0.0396 0.9716 -0.2334
vn -0.0396 0.9716 0.2334
vn -0.0954 0.8212 0.5626
vn 0.0954 0.8212 -0.5626
vn 0.9947 0.0000 0.1026
vn 0.0395 0.9716 -0.2334
vn -0.0953 0.8212 0.5626
vn 0.0953 0.8212 -0.5626
vn 0.9957 0.0000 -0.0926
vn 0.1511 0.0000 0.9885
vn -0.9957 0.0000 0.0926
vn -0.1509 0.0000 -0.9886
vn -0.1510 0.0000 -0.9885
vn -0.1508 0.0000 -0.9886
vn -0.0357 0.9717 -0.2334
vn 0.0357 0.9717 0.2334
vn 0.0860 0.8220 0.5630
vn -0.0860 0.8220 -0.5630
vn -0.0861 0.8220 -0.5630
vn -0.1511 0.0000 -0.9885
vn -0.0356 0.9717 -0.2334
vn 0.0356 0.9717 0.2334
vn 0.0859 0.8220 0.5630
vn -0.0859 0.8220 -0.5630
s 1
f 1//1 2//1 3//1
f 4//2 2//3 5//4
f 6//5 7//6 8//5
f 9//7 7//7 10//7
f 2//8 11//8 3//8
f 4//9 1//9 12//9
f 6//10 9//10 10//10
f 13//11 14//11 6//11
f 12//12 15//12 13//12
f 16//8 7//8 17//8
f 18//8 8//8 16//8
f 3//8 19//8 18//8
f 12//5 20//5 4//5
f 13//5 11//5 12//5
f 13//5 8//5 19//5
f 14//1 17//13 9//1
f 15//1 16//1 14//1
f 15//1 3//1 18//1
f 1//1 5//1 2//1
f 4//2 20//3 2//3
f 6//5 10//5 7//6
f 9//7 17//7 7//7
f 2//8 20//8 11//8
f 4//9 5//14 1//9
f 6//10 14//10 9//10
f 13//11 15//15 14//11
f 12//12 1//16 15//12
f 16//8 8//8 7//8
f 18//8 19//8 8//8
f 3//8 11//8 19//8
f 12//5 11//5 20//5
f 13//5 19//5 11//5
f 13//5 6//5 8//5
f 14//1 16//1 17//13
f 15//1 18//1 16//1
f 15//1 1//1 3//1
f 21//17 22//17 23//17
f 24//18 22//18 25//18
f 26//19 27//19 28//19
f 29//20 27//21 30//22
f 22//8 31//8 23//8
f 24//23 21//23 32//23
f 26//24 29//24 30//24
f 33//25 34//25 26//25
f 32//26 35//26 33//27
f 36//8 27//8 37//8
f 38//8 28//8 36//8
f 23//8 39//8 38//8
f 32//19 40//19 24//19
f 33//19 31//19 32//19
f 33//19 28//19 39//19
f 34//17 37//17 29//17
f 35//17 36//17 34//17
f 35//17 23//17 38//17
f 21//17 25//17 22//17
f 24//18 40//18 22//18
f 26//19 30//19 27//19
f 29//20 37//28 27//21
f 22//8 40//8 31//8
f 24//23 25//29 21//23
f 26//24 34//30 29//24
f 33//25 35//31 34//25
f 32//26 21//32 35//26
f 36//8 28//8 27//8
f 38//8 39//8 28//8
f 23//8 31//8 39//8
f 32//19 31//19 40//19
f 33//19 39//19 31//19
f 33//19 26//19 28//19
f 34//17 36//17 37//17
f 35//17 38//17 36//17
f 35//17 21//17 23//17
`