var banderas_obj = `# Blender v2.79 (sub 0) OBJ File: 'CASTELO E ARVORES.blend'
# www.blender.org
v 2.585881 3.573440 0.152374
v 3.233482 3.695886 0.027003
v 2.585938 3.975863 0.158882
v 3.246248 4.029666 0.079012
v 2.826623 3.818912 0.148378
v 2.585916 3.765459 0.156312
v 3.106861 3.689356 0.198274
v 3.098360 3.947736 0.231944
v 2.895817 3.978206 0.226444
v 3.115237 3.739536 0.141081
v 2.517664 3.765459 0.156908
v 2.517664 3.520536 0.156908
v 3.125841 3.655681 0.200615
v 3.415603 3.674694 0.026991
v 3.147017 3.923313 0.233337
v 3.459646 4.098832 0.071999
v 2.885483 4.012908 0.223950
v 2.517664 4.010381 0.156908
v 3.150739 3.769250 0.138559
v 2.943293 3.826369 0.146804
vn 0.1155 -0.1294 -0.9848
vn -0.0357 0.0122 -0.9993
vn 0.1960 0.3616 -0.9115
vn -0.1097 -0.8281 -0.5497
vn -0.2143 -0.7184 -0.6617
vn -0.6924 -0.4891 -0.5305
vn 0.0861 0.4080 -0.9089
vn -0.0375 0.0205 -0.9991
vn -0.0087 0.0205 -0.9998
vn -0.7139 -0.4402 -0.5446
vn -0.3184 -0.6725 -0.6681
vn 0.2131 -0.0068 -0.9770
vn -0.0474 -0.0281 -0.9985
vn 0.0289 -0.0000 -0.9996
vn 0.1227 -0.2407 -0.9628
vn -0.0500 0.6156 -0.7865
vn -0.2685 0.7696 -0.5793
vn 0.1005 0.8639 -0.4936
vn -0.0663 -0.0000 -0.9978
vn -0.1107 -0.9510 -0.2888
vn 0.2664 -0.8651 -0.4249
vn 0.1701 0.2825 -0.9441
vn -0.0157 0.0348 -0.9993
vn -0.0087 0.0122 -0.9999
vn 0.0916 -0.0176 -0.9956
vn 0.2102 0.3671 -0.9061
vn -0.3602 -0.1731 -0.9167
vn -0.4855 0.5205 -0.7024
s off
f 5//1 7//1 1//1
f 6//2 3//2 5//2
f 3//3 9//3 5//3
f 9//4 4//4 8//4
f 5//5 10//5 7//5
f 10//6 2//6 7//6
f 9//7 8//7 5//7
f 1//8 6//8 5//8
f 1//9 11//9 6//9
f 2//10 13//10 7//10
f 4//11 15//11 8//11
f 3//12 17//12 9//12
f 10//13 20//13 19//13
f 3//14 11//14 18//14
f 1//15 13//15 12//15
f 8//16 20//16 5//16
f 4//17 17//17 16//17
f 2//18 19//18 14//18
f 1//19 12//19 11//19
f 2//20 14//20 13//20
f 4//21 16//21 15//21
f 3//22 18//22 17//22
f 10//23 5//23 20//23
f 3//24 6//24 11//24
f 1//25 7//25 13//25
f 8//26 15//26 20//26
f 4//27 9//27 17//27
f 2//28 10//28 19//28
v -0.098247 3.617088 0.138014
v 0.549354 3.739533 0.012644
v -0.098190 4.019511 0.144523
v 0.562120 4.073314 0.064652
v 0.142495 3.862559 0.134018
v -0.098213 3.809106 0.141953
v 0.422733 3.733003 0.183914
v 0.414232 3.991384 0.217584
v 0.211688 4.021853 0.212084
v 0.431108 3.783183 0.126721
v -0.166464 3.809106 0.142549
v -0.166464 3.564184 0.142549
v 0.441713 3.699329 0.186256
v 0.731474 3.718341 0.012632
v 0.462889 3.966960 0.218978
v 0.775517 4.142479 0.057639
v 0.201355 4.056556 0.209590
v -0.166464 4.054029 0.142549
v 0.466611 3.812898 0.124199
v 0.259165 3.870016 0.132444
vn 0.1155 -0.1294 -0.9848
vn -0.0357 0.0122 -0.9993
vn 0.1960 0.3616 -0.9115
vn -0.1097 -0.8281 -0.5497
vn -0.2143 -0.7184 -0.6617
vn -0.6924 -0.4891 -0.5305
vn 0.0861 0.4080 -0.9089
vn -0.0375 0.0205 -0.9991
vn -0.0087 0.0205 -0.9998
vn -0.7139 -0.4402 -0.5446
vn -0.3184 -0.6725 -0.6682
vn 0.2131 -0.0068 -0.9770
vn -0.0474 -0.0281 -0.9985
vn 0.0289 -0.0000 -0.9996
vn 0.1227 -0.2407 -0.9628
vn -0.0500 0.6156 -0.7865
vn -0.2685 0.7696 -0.5793
vn 0.1005 0.8639 -0.4936
vn -0.0663 -0.0000 -0.9978
vn -0.1107 -0.9510 -0.2888
vn 0.2664 -0.8651 -0.4249
vn 0.1701 0.2825 -0.9441
vn -0.0157 0.0348 -0.9993
vn -0.0087 0.0122 -0.9999
vn 0.0916 -0.0176 -0.9956
vn 0.2102 0.3671 -0.9061
vn -0.3602 -0.1731 -0.9167
vn -0.4855 0.5205 -0.7024
s off
f 25//29 27//29 21//29
f 26//30 23//30 25//30
f 23//31 29//31 25//31
f 29//32 24//32 28//32
f 25//33 30//33 27//33
f 30//34 22//34 27//34
f 29//35 28//35 25//35
f 21//36 26//36 25//36
f 21//37 31//37 26//37
f 22//38 33//38 27//38
f 24//39 35//39 28//39
f 23//40 37//40 29//40
f 30//41 40//41 39//41
f 23//42 31//42 38//42
f 21//43 33//43 32//43
f 28//44 40//44 25//44
f 24//45 37//45 36//45
f 22//46 39//46 34//46
f 21//47 32//47 31//47
f 22//48 34//48 33//48
f 24//49 36//49 35//49
f 23//50 38//50 37//50
f 30//51 25//51 40//51
f 23//52 26//52 31//52
f 21//53 27//53 33//53
f 28//54 35//54 40//54
f 24//55 29//55 37//55
f 22//56 30//56 39//56
v -0.117755 3.617088 2.440004
v 0.529846 3.739533 2.314634
v -0.117699 4.019511 2.446513
v 0.542612 4.073314 2.366642
v 0.122987 3.862559 2.436008
v -0.117721 3.809106 2.443943
v 0.403224 3.733003 2.485904
v 0.394723 3.991384 2.519574
v 0.192180 4.021853 2.514074
v 0.411600 3.783183 2.428712
v -0.185972 3.809106 2.444539
v -0.185972 3.564184 2.444539
v 0.422204 3.699329 2.488246
v 0.711966 3.718341 2.314622
v 0.443380 3.966960 2.520968
v 0.756009 4.142479 2.359629
v 0.181846 4.056556 2.511581
v -0.185972 4.054029 2.444539
v 0.447103 3.812898 2.426189
v 0.239656 3.870016 2.434435
vn 0.1155 -0.1294 -0.9848
vn -0.0356 0.0122 -0.9993
vn 0.1960 0.3616 -0.9115
vn -0.1097 -0.8281 -0.5497
vn -0.2143 -0.7184 -0.6617
vn -0.6924 -0.4891 -0.5305
vn 0.0861 0.4080 -0.9089
vn -0.0375 0.0205 -0.9991
vn -0.0087 0.0205 -0.9998
vn -0.7139 -0.4402 -0.5446
vn -0.3184 -0.6725 -0.6682
vn 0.2131 -0.0068 -0.9770
vn -0.0474 -0.0281 -0.9985
vn 0.0289 0.0000 -0.9996
vn 0.1227 -0.2407 -0.9628
vn -0.0500 0.6156 -0.7865
vn -0.2685 0.7696 -0.5793
vn 0.1005 0.8639 -0.4936
vn -0.0663 0.0000 -0.9978
vn -0.1107 -0.9510 -0.2888
vn 0.2664 -0.8651 -0.4249
vn 0.1701 0.2825 -0.9441
vn -0.0157 0.0348 -0.9993
vn -0.0087 0.0122 -0.9999
vn 0.0916 -0.0176 -0.9956
vn 0.2102 0.3671 -0.9061
vn -0.3602 -0.1731 -0.9167
vn -0.4855 0.5205 -0.7024
s off
f 45//57 47//57 41//57
f 46//58 43//58 45//58
f 43//59 49//59 45//59
f 49//60 44//60 48//60
f 45//61 50//61 47//61
f 50//62 42//62 47//62
f 49//63 48//63 45//63
f 41//64 46//64 45//64
f 41//65 51//65 46//65
f 42//66 53//66 47//66
f 44//67 55//67 48//67
f 43//68 57//68 49//68
f 50//69 60//69 59//69
f 43//70 51//70 58//70
f 41//71 53//71 52//71
f 48//72 60//72 45//72
f 44//73 57//73 56//73
f 42//74 59//74 54//74
f 41//75 52//75 51//75
f 42//76 54//76 53//76
f 44//77 56//77 55//77
f 43//78 58//78 57//78
f 50//79 45//79 60//79
f 43//80 46//80 51//80
f 41//81 47//81 53//81
f 48//82 55//82 60//82
f 44//83 49//83 57//83
f 42//84 50//84 59//84
v 2.586384 3.617088 2.432792
v 3.233985 3.739533 2.307422
v 2.586441 4.019511 2.439300
v 3.246751 4.073314 2.359430
v 2.827126 3.862560 2.428796
v 2.586419 3.809107 2.436731
v 3.107364 3.733003 2.478692
v 3.098863 3.991384 2.512362
v 2.896319 4.021854 2.506862
v 3.115739 3.783183 2.421499
v 2.518167 3.809107 2.437326
v 2.518167 3.564184 2.437326
v 3.126344 3.699329 2.481033
v 3.416106 3.718342 2.307410
v 3.147520 3.966961 2.513756
v 3.460149 4.142480 2.352417
v 2.885986 4.056556 2.504368
v 2.518167 4.054029 2.437326
v 3.151242 3.812898 2.418977
v 2.943796 3.870017 2.427222
vn 0.1155 -0.1294 -0.9848
vn -0.0356 0.0122 -0.9993
vn 0.1960 0.3616 -0.9115
vn -0.1097 -0.8281 -0.5497
vn -0.2143 -0.7184 -0.6617
vn -0.6924 -0.4891 -0.5305
vn 0.0861 0.4080 -0.9089
vn -0.0375 0.0205 -0.9991
vn -0.0087 0.0205 -0.9998
vn -0.7139 -0.4402 -0.5446
vn -0.3184 -0.6725 -0.6681
vn 0.2131 -0.0068 -0.9770
vn -0.0474 -0.0281 -0.9985
vn 0.0289 0.0000 -0.9996
vn 0.1227 -0.2407 -0.9628
vn -0.0500 0.6156 -0.7865
vn -0.2685 0.7696 -0.5793
vn 0.1005 0.8639 -0.4936
vn -0.0663 0.0000 -0.9978
vn -0.1107 -0.9510 -0.2888
vn 0.2664 -0.8651 -0.4249
vn 0.1701 0.2825 -0.9441
vn -0.0157 0.0348 -0.9993
vn -0.0087 0.0122 -0.9999
vn 0.0916 -0.0176 -0.9956
vn 0.2102 0.3671 -0.9061
vn -0.3602 -0.1731 -0.9167
vn -0.4855 0.5205 -0.7024
s off
f 65//85 67//85 61//85
f 66//86 63//86 65//86
f 63//87 69//87 65//87
f 69//88 64//88 68//88
f 65//89 70//89 67//89
f 70//90 62//90 67//90
f 69//91 68//91 65//91
f 61//92 66//92 65//92
f 61//93 71//93 66//93
f 62//94 73//94 67//94
f 64//95 75//95 68//95
f 63//96 77//96 69//96
f 70//97 80//97 79//97
f 63//98 71//98 78//98
f 61//99 73//99 72//99
f 68//100 80//100 65//100
f 64//101 77//101 76//101
f 62//102 79//102 74//102
f 61//103 72//103 71//103
f 62//104 74//104 73//104
f 64//105 76//105 75//105
f 63//106 78//106 77//106
f 70//107 65//107 80//107
f 63//108 66//108 71//108
f 61//109 67//109 73//109
f 68//110 75//110 80//110
f 64//111 69//111 77//111
f 62//112 70//112 79//112
`
