var direccional_obj = `# Blender v2.79 (sub 0) OBJ File: ''
# www.blender.org
v 0.000000 -1.000000 -0.484500
v 0.000000 1.000000 -0.484500
v 0.094521 -1.000000 -0.475190
v 0.094521 1.000000 -0.475190
v 0.185410 -1.000000 -0.447620
v 0.185410 1.000000 -0.447620
v 0.269174 -1.000000 -0.402847
v 0.269174 1.000000 -0.402847
v 0.342594 -1.000000 -0.342593
v 0.342594 1.000000 -0.342593
v 0.402847 -1.000000 -0.269174
v 0.402847 1.000000 -0.269174
v 0.447620 -1.000000 -0.185410
v 0.447620 1.000000 -0.185410
v 0.475191 -1.000000 -0.094521
v 0.475191 1.000000 -0.094521
v 0.484500 -1.000000 -0.000000
v 0.484500 1.000000 -0.000000
v 0.475191 -1.000000 0.094521
v 0.475191 1.000000 0.094521
v 0.447620 -1.000000 0.185410
v 0.447620 1.000000 0.185410
v 0.402847 -1.000000 0.269174
v 0.402847 1.000000 0.269174
v 0.342594 -1.000000 0.342593
v 0.342594 1.000000 0.342593
v 0.269174 -1.000000 0.402847
v 0.269174 1.000000 0.402847
v 0.185410 -1.000000 0.447620
v 0.185410 1.000000 0.447620
v 0.094521 -1.000000 0.475190
v 0.094521 1.000000 0.475190
v -0.000000 -1.000000 0.484500
v -0.000000 1.000000 0.484500
v -0.094522 -1.000000 0.475190
v -0.094522 1.000000 0.475190
v -0.185410 -1.000000 0.447620
v -0.185410 1.000000 0.447620
v -0.269174 -1.000000 0.402847
v -0.269174 1.000000 0.402847
v -0.342594 -1.000000 0.342593
v -0.342594 1.000000 0.342593
v -0.402848 -1.000000 0.269174
v -0.402848 1.000000 0.269174
v -0.447620 -1.000000 0.185410
v -0.447620 1.000000 0.185410
v -0.475191 -1.000000 0.094521
v -0.475191 1.000000 0.094521
v -0.484500 -1.000000 -0.000000
v -0.484500 1.000000 -0.000000
v -0.475191 -1.000000 -0.094522
v -0.475191 1.000000 -0.094522
v -0.447620 -1.000000 -0.185411
v -0.447620 1.000000 -0.185411
v -0.402847 -1.000000 -0.269174
v -0.402847 1.000000 -0.269174
v -0.342593 -1.000000 -0.342594
v -0.342593 1.000000 -0.342594
v -0.269173 -1.000000 -0.402847
v -0.269173 1.000000 -0.402847
v -0.185410 -1.000000 -0.447620
v -0.185410 1.000000 -0.447620
v -0.094521 -1.000000 -0.475191
v -0.094521 1.000000 -0.475191
vn 0.0980 0.0000 -0.9952
vn 0.2903 0.0000 -0.9569
vn 0.4714 0.0000 -0.8819
vn 0.6344 0.0000 -0.7730
vn 0.7730 0.0000 -0.6344
vn 0.8819 0.0000 -0.4714
vn 0.9569 0.0000 -0.2903
vn 0.9952 0.0000 -0.0980
vn 0.9952 0.0000 0.0980
vn 0.9569 0.0000 0.2903
vn 0.8819 0.0000 0.4714
vn 0.7730 0.0000 0.6344
vn 0.6344 0.0000 0.7730
vn 0.4714 0.0000 0.8819
vn 0.2903 0.0000 0.9569
vn 0.0980 0.0000 0.9952
vn -0.0980 0.0000 0.9952
vn -0.2903 0.0000 0.9569
vn -0.4714 0.0000 0.8819
vn -0.6344 0.0000 0.7730
vn -0.7730 0.0000 0.6344
vn -0.8819 0.0000 0.4714
vn -0.9569 0.0000 0.2903
vn -0.9952 0.0000 0.0980
vn -0.9952 0.0000 -0.0980
vn -0.9569 0.0000 -0.2903
vn -0.8819 0.0000 -0.4714
vn -0.7730 0.0000 -0.6344
vn -0.6344 0.0000 -0.7730
vn -0.4714 0.0000 -0.8819
vn 0.0000 1.0000 0.0000
vn -0.2903 0.0000 -0.9569
vn -0.0980 0.0000 -0.9952
vn 0.0000 -1.0000 0.0000
s off
f 2//1 3//1 1//1
f 4//2 5//2 3//2
f 6//3 7//3 5//3
f 8//4 9//4 7//4
f 10//5 11//5 9//5
f 12//6 13//6 11//6
f 14//7 15//7 13//7
f 16//8 17//8 15//8
f 18//9 19//9 17//9
f 20//10 21//10 19//10
f 22//11 23//11 21//11
f 24//12 25//12 23//12
f 26//13 27//13 25//13
f 28//14 29//14 27//14
f 30//15 31//15 29//15
f 32//16 33//16 31//16
f 34//17 35//17 33//17
f 36//18 37//18 35//18
f 38//19 39//19 37//19
f 40//20 41//20 39//20
f 42//21 43//21 41//21
f 44//22 45//22 43//22
f 46//23 47//23 45//23
f 48//24 49//24 47//24
f 50//25 51//25 49//25
f 52//26 53//26 51//26
f 54//27 55//27 53//27
f 56//28 57//28 55//28
f 58//29 59//29 57//29
f 60//30 61//30 59//30
f 54//31 38//31 22//31
f 62//32 63//32 61//32
f 64//33 1//33 63//33
f 15//34 31//34 47//34
f 2//1 4//1 3//1
f 4//2 6//2 5//2
f 6//3 8//3 7//3
f 8//4 10//4 9//4
f 10//5 12//5 11//5
f 12//6 14//6 13//6
f 14//7 16//7 15//7
f 16//8 18//8 17//8
f 18//9 20//9 19//9
f 20//10 22//10 21//10
f 22//11 24//11 23//11
f 24//12 26//12 25//12
f 26//13 28//13 27//13
f 28//14 30//14 29//14
f 30//15 32//15 31//15
f 32//16 34//16 33//16
f 34//17 36//17 35//17
f 36//18 38//18 37//18
f 38//19 40//19 39//19
f 40//20 42//20 41//20
f 42//21 44//21 43//21
f 44//22 46//22 45//22
f 46//23 48//23 47//23
f 48//24 50//24 49//24
f 50//25 52//25 51//25
f 52//26 54//26 53//26
f 54//27 56//27 55//27
f 56//28 58//28 57//28
f 58//29 60//29 59//29
f 60//30 62//30 61//30
f 6//31 4//31 2//31
f 2//31 64//31 6//31
f 64//31 62//31 6//31
f 62//31 60//31 58//31
f 58//31 56//31 54//31
f 54//31 52//31 50//31
f 50//31 48//31 54//31
f 48//31 46//31 54//31
f 46//31 44//31 42//31
f 42//31 40//31 38//31
f 38//31 36//31 34//31
f 34//31 32//31 30//31
f 30//31 28//31 26//31
f 26//31 24//31 22//31
f 22//31 20//31 18//31
f 18//31 16//31 22//31
f 16//31 14//31 22//31
f 14//31 12//31 10//31
f 10//31 8//31 6//31
f 62//31 58//31 6//31
f 58//31 54//31 6//31
f 46//31 42//31 38//31
f 38//31 34//31 22//31
f 34//31 30//31 22//31
f 30//31 26//31 22//31
f 14//31 10//31 22//31
f 10//31 6//31 22//31
f 54//31 46//31 38//31
f 6//31 54//31 22//31
f 62//32 64//32 63//32
f 64//33 2//33 1//33
f 63//34 1//34 3//34
f 3//34 5//34 7//34
f 7//34 9//34 11//34
f 11//34 13//34 7//34
f 13//34 15//34 7//34
f 15//34 17//34 19//34
f 19//34 21//34 15//34
f 21//34 23//34 15//34
f 23//34 25//34 31//34
f 25//34 27//34 31//34
f 27//34 29//34 31//34
f 31//34 33//34 35//34
f 35//34 37//34 39//34
f 39//34 41//34 47//34
f 41//34 43//34 47//34
f 43//34 45//34 47//34
f 47//34 49//34 51//34
f 51//34 53//34 55//34
f 55//34 57//34 59//34
f 59//34 61//34 63//34
f 63//34 3//34 7//34
f 31//34 35//34 47//34
f 35//34 39//34 47//34
f 47//34 51//34 63//34
f 51//34 55//34 63//34
f 55//34 59//34 63//34
f 63//34 7//34 15//34
f 15//34 23//34 31//34
f 63//34 15//34 47//34
v 0.000000 0.998586 -0.899743
v 0.175531 0.998586 -0.882455
v 0.344317 0.998586 -0.831254
v 0.499871 0.998586 -0.748109
v 0.636215 0.998586 -0.636215
v 0.748109 0.998586 -0.499871
v 0.831254 0.998586 -0.344317
v 0.882455 0.998586 -0.175531
v 0.899743 0.998586 -0.000000
v 0.882455 0.998586 0.175531
v 0.831255 0.998586 0.344317
v 0.748109 0.998586 0.499871
v 0.636215 0.998586 0.636215
v 0.499871 0.998586 0.748109
v 0.344317 0.998586 0.831255
v 0.175531 0.998586 0.882455
v -0.000000 0.998586 0.899743
v -0.175532 0.998586 0.882455
v -0.344317 0.998586 0.831254
v -0.499871 0.998586 0.748109
v -0.636215 0.998586 0.636214
v -0.748110 0.998586 0.499870
v -0.831255 0.998586 0.344316
v 0.000000 2.998073 0.000000
v -0.882455 0.998586 0.175530
v -0.899743 0.998586 -0.000001
v -0.882455 0.998586 -0.175532
v -0.831254 0.998586 -0.344318
v -0.748109 0.998586 -0.499872
v -0.636214 0.998586 -0.636215
v -0.499870 0.998586 -0.748110
v -0.344316 0.998586 -0.831255
v -0.175530 0.998586 -0.882455
vn 0.0895 0.4087 -0.9083
vn 0.2649 0.4087 -0.8734
vn 0.4302 0.4087 -0.8049
vn 0.5790 0.4087 -0.7055
vn 0.7055 0.4087 -0.5790
vn 0.8049 0.4087 -0.4302
vn 0.8734 0.4087 -0.2649
vn 0.9083 0.4087 -0.0895
vn 0.9083 0.4087 0.0895
vn 0.8734 0.4087 0.2649
vn 0.8049 0.4087 0.4302
vn 0.7055 0.4087 0.5790
vn 0.5790 0.4087 0.7055
vn 0.4302 0.4087 0.8049
vn 0.2649 0.4087 0.8734
vn 0.0895 0.4087 0.9083
vn -0.0895 0.4087 0.9083
vn -0.2649 0.4087 0.8734
vn -0.4302 0.4087 0.8049
vn -0.5790 0.4087 0.7055
vn -0.7055 0.4087 0.5790
vn -0.8049 0.4087 0.4302
vn -0.8734 0.4087 0.2649
vn -0.9083 0.4087 0.0895
vn -0.9083 0.4087 -0.0895
vn -0.8734 0.4087 -0.2649
vn -0.8049 0.4087 -0.4302
vn -0.7055 0.4087 -0.5790
vn -0.5790 0.4087 -0.7055
vn -0.4302 0.4087 -0.8049
vn -0.2649 0.4087 -0.8734
vn -0.0895 0.4087 -0.9083
vn 0.0000 -1.0000 0.0000
s off
f 65//35 88//35 66//35
f 66//36 88//36 67//36
f 67//37 88//37 68//37
f 68//38 88//38 69//38
f 69//39 88//39 70//39
f 70//40 88//40 71//40
f 71//41 88//41 72//41
f 72//42 88//42 73//42
f 73//43 88//43 74//43
f 74//44 88//44 75//44
f 75//45 88//45 76//45
f 76//46 88//46 77//46
f 77//47 88//47 78//47
f 78//48 88//48 79//48
f 79//49 88//49 80//49
f 80//50 88//50 81//50
f 81//51 88//51 82//51
f 82//52 88//52 83//52
f 83//53 88//53 84//53
f 84//54 88//54 85//54
f 85//55 88//55 86//55
f 86//56 88//56 87//56
f 87//57 88//57 89//57
f 89//58 88//58 90//58
f 90//59 88//59 91//59
f 91//60 88//60 92//60
f 92//61 88//61 93//61
f 93//62 88//62 94//62
f 94//63 88//63 95//63
f 95//64 88//64 96//64
f 96//65 88//65 97//65
f 97//66 88//66 65//66
f 72//67 80//67 89//67
f 97//67 65//67 66//67
f 66//67 67//67 68//67
f 68//67 69//67 70//67
f 70//67 71//67 68//67
f 71//67 72//67 68//67
f 72//67 73//67 74//67
f 74//67 75//67 72//67
f 75//67 76//67 72//67
f 76//67 77//67 80//67
f 77//67 78//67 80//67
f 78//67 79//67 80//67
f 80//67 81//67 82//67
f 82//67 83//67 84//67
f 84//67 85//67 89//67
f 85//67 86//67 89//67
f 86//67 87//67 89//67
f 89//67 90//67 91//67
f 91//67 92//67 93//67
f 93//67 94//67 95//67
f 95//67 96//67 97//67
f 97//67 66//67 68//67
f 80//67 82//67 89//67
f 82//67 84//67 89//67
f 89//67 91//67 97//67
f 91//67 93//67 97//67
f 93//67 95//67 97//67
f 97//67 68//67 72//67
f 72//67 76//67 80//67
f 97//67 72//67 89//67
`;